<?xml version="1.0" encoding="UTF-8" standalone="no"?>
<!-- Generator: Assembly 1.0 - http://assemblyapp.co -->

<svg
   xmlns:dc="http://purl.org/dc/elements/1.1/"
   xmlns:cc="http://creativecommons.org/ns#"
   xmlns:rdf="http://www.w3.org/1999/02/22-rdf-syntax-ns#"
   xmlns:svg="http://www.w3.org/2000/svg"
   xmlns="http://www.w3.org/2000/svg"
   xmlns:sodipodi="http://sodipodi.sourceforge.net/DTD/sodipodi-0.dtd"
   xmlns:inkscape="http://www.inkscape.org/namespaces/inkscape"
   version="1.1"
   width="300"
   height="300"
   viewBox="0 0 300 300"
   id="svg3435"
   inkscape:version="0.91 r13725"
   sodipodi:docname="logo.svg"
   inkscape:export-xdpi="38.400002"
   inkscape:export-ydpi="38.400002">
  <metadata
     id="metadata3462">
    <rdf:RDF>
      <cc:Work
         rdf:about="">
        <dc:format>image/svg+xml</dc:format>
        <dc:type
           rdf:resource="http://purl.org/dc/dcmitype/StillImage" />
        <dc:title></dc:title>
      </cc:Work>
    </rdf:RDF>
  </metadata>
  <defs
     id="defs3460" />
  <sodipodi:namedview
     pagecolor="#ffffff"
     bordercolor="#666666"
     borderopacity="1"
     objecttolerance="10"
     gridtolerance="10"
     guidetolerance="10"
     inkscape:pageopacity="0"
     inkscape:pageshadow="2"
     inkscape:window-width="1920"
     inkscape:window-height="1080"
     id="namedview3458"
     showgrid="false"
     inkscape:zoom="2.7466667"
     inkscape:cx="150"
     inkscape:cy="150"
     inkscape:window-x="0"
     inkscape:window-y="0"
     inkscape:window-maximized="0"
     inkscape:current-layer="svg3435" />
  <g
     id="widget"
     transform="matrix(1,0,0,1,150,150)">
    <path
       d="M-65.7583,-16.3695 Q-65.7583,-19.144 -65.7583,-24.582Q-71.1963,-24.582 -82.1832,-24.582Q-82.1832,-8.157 -82.1832,24.582Q-76.6343,24.582 -65.7583,24.582Q-65.7583,21.8075 -65.7583,16.3695Q-60.3203,16.3695 -49.4443,16.3695Q-49.4443,21.8075 -49.4443,32.6835Q-49.4443,36.1239 -51.7748,38.4544Q-54.2164,40.896 -57.5458,40.896Q-68.5327,40.896 -90.2848,40.896Q-93.7251,40.896 -96.0557,38.4544Q-98.4972,36.1239 -98.4972,32.6835Q-98.4972,24.471 -98.4972,8.04602Q-98.4972,1.27627 -98.4972,-8.82288Q-98.4972,-19.144 -98.4972,-32.7945Q-98.4972,-36.1239 -96.0557,-38.5654Q-93.7251,-40.896 -90.2848,-40.896Q-79.4088,-40.896 -57.5458,-40.896Q-54.2164,-40.896 -51.7748,-38.5654Q-49.4443,-36.1239 -49.4443,-32.7945Q-49.4443,-27.2455 -49.4443,-16.3695Q-54.8823,-16.3695 -65.7583,-16.3695Z"
       fill="#e55a5a"
       fill-opacity="1"
       id="path3440" />
    <path
       d="M41.1965,-32.7945 Q41.1965,-8.157 41.1965,40.896Q35.7585,40.896 24.8825,40.896Q24.8825,19.033 24.8825,-24.582Q19.4445,-24.582 8.4575,-24.582Q8.4575,-2.719 8.4575,40.896Q3.0195,40.896 -7.8565,40.896Q-7.8565,19.033 -7.8565,-24.582Q-13.2945,-24.582 -24.2815,-24.582Q-24.2815,-2.719 -24.2815,40.896Q-29.7195,40.896 -40.5955,40.896Q-40.5955,31.6847 -40.5955,13.1511Q-40.5955,5.49349 -40.5955,-5.93741Q-40.5955,-17.4793 -40.5955,-32.7945Q-40.5955,-36.1239 -38.1539,-38.5654Q-35.8234,-40.896 -32.383,-40.896Q-24.2815,-40.896 -7.8565,-40.896Q-4.41613,-40.896 -2.08556,-38.5654Q0.355988,-36.1239 0.355988,-32.7945Q0.355988,-36.1239 2.68656,-38.5654Q5.12811,-40.896 8.4575,-40.896Q16.67,-40.896 33.095,-40.896Q36.4244,-40.896 38.8659,-38.5654Q41.1965,-36.1239 41.1965,-32.7945Z"
       fill="#e55a5a"
       fill-opacity="1"
       id="path3442" />
    <path
       d="M98.4972,-32.7945 Q98.4972,-10.9315 98.4972,32.6835Q98.4972,36.1239 96.1667,38.4544Q93.7251,40.896 90.3957,40.896Q82.1832,40.896 65.7583,40.896Q63.0947,40.896 57.6567,40.896Q54.8823,40.896 49.4443,40.896Q49.4443,27.2455 49.4443,6.82525Q49.4443,-13.595 49.4443,-40.896Q54.2164,-40.896 63.7606,-40.896Q64.4265,-40.896 65.7583,-40.896Q73.9708,-40.896 90.3957,-40.896Q93.7251,-40.896 96.1667,-38.5654Q98.4972,-36.1239 98.4972,-32.7945Z M65.7583,24.582 Q71.3072,24.582 82.1832,24.582Q82.1832,23.4722 82.1832,21.3636Q82.1832,6.04839 82.1832,-24.582Q76.7452,-24.582 65.7583,-24.582Q65.7583,-16.3695 65.7583,-0.0554898Q65.7583,8.157 65.7583,24.582Z"
       fill="#e55a5a"
       fill-opacity="1"
       id="path3444" />
    <path
       d="M118.932,45.4605 L118.932,45.4605 C118.932,56.4884 110.03,65.3904 99.0021,65.3904 L99.0021,65.3904 L65.7856,65.3904 L65.7856,78.677 L99.0021,78.677 L99.0021,78.677 C117.338,78.677 132.219,63.796 132.219,45.4605 L132.219,45.4605 L132.219,12.244 L118.932,12.244 L118.932,45.4605 Z"
       fill="#008c9f"
       fill-opacity="1"
       id="path3446" />
    <path
       d="M-119.411,45.4605 L-119.411,45.4605 C-119.411,56.4884 -110.509,65.3904 -99.4807,65.3904 L-99.4807,65.3904 L-66.2642,65.3904 L-66.2642,78.677 L-99.4807,78.677 L-99.4807,78.677 C-117.816,78.677 -132.697,63.796 -132.697,45.4605 L-132.697,45.4605 L-132.697,12.244 L-119.411,12.244 L-119.411,45.4605 Z"
       fill="#008c9f"
       fill-opacity="1"
       id="path3448" />
    <path
       d="M-36.0538,78.677 L-36.0538,65.3782 L68.0738,65.3782 L68.0738,78.677 L-36.0538,78.677 Z"
       fill="#008c9f"
       fill-opacity="1"
       id="path3450" />
    <path
       d="M-119.411,-46.3601 L-119.411,-46.3601 C-119.411,-57.3879 -110.509,-66.29 -99.4807,-66.29 L-99.4807,-66.29 L-66.2642,-66.29 L-66.2642,-79.5766 L-99.4807,-79.5766 L-99.4807,-79.5766 C-117.816,-79.5766 -132.697,-64.6955 -132.697,-46.3601 L-132.697,-46.3601 L-132.697,-13.1436 L-119.411,-13.1436 L-119.411,-46.3601 Z"
       fill="#008c9f"
       fill-opacity="1"
       id="path3452" />
    <path
       d="M118.932,-46.3601 L118.932,-46.3601 C118.932,-57.3879 110.03,-66.29 99.0021,-66.29 L99.0021,-66.29 L65.7856,-66.29 L65.7856,-79.5766 L99.0021,-79.5766 L99.0021,-79.5766 C117.338,-79.5766 132.219,-64.6955 132.219,-46.3601 L132.219,-46.3601 L132.219,-13.1436 L118.932,-13.1436 L118.932,-46.3601 Z"
       fill="#008c9f"
       fill-opacity="1"
       id="path3454" />
    <path
       d="M35.5752,-79.5766 L35.5752,-66.2778 L-68.5524,-66.2778 L-68.5524,-79.5766 L35.5752,-79.5766 Z"
       fill="#008c9f"
       fill-opacity="1"
       id="path3456" />
  </g>
</svg>
